<?xml version="1.0" encoding="UTF-8" standalone="no"?>
<!-- Created with Inkscape (http://www.inkscape.org/) -->

<svg
   width="210mm"
   height="297mm"
   viewBox="0 0 210 297"
   version="1.1"
   id="svg1"
   xml:space="preserve"
   inkscape:version="1.4.4 (dcaf3e7d9e, 2026-05-05)"
   sodipodi:docname="drawing.svg"
   xmlns:inkscape="http://www.inkscape.org/namespaces/inkscape"
   xmlns:sodipodi="http://sodipodi.sourceforge.net/DTD/sodipodi-0.dtd"
   xmlns="http://www.w3.org/2000/svg"
   xmlns:svg="http://www.w3.org/2000/svg"><sodipodi:namedview
     id="namedview1"
     pagecolor="#ffffff"
     bordercolor="#000000"
     borderopacity="0.25"
     inkscape:showpageshadow="2"
     inkscape:pageopacity="0.0"
     inkscape:pagecheckerboard="0"
     inkscape:deskcolor="#d1d1d1"
     inkscape:document-units="mm"
     inkscape:zoom="1.4538742"
     inkscape:cx="692.97603"
     inkscape:cy="551.62956"
     inkscape:window-width="2560"
     inkscape:window-height="1368"
     inkscape:window-x="1920"
     inkscape:window-y="0"
     inkscape:window-maximized="1"
     inkscape:current-layer="layer1" /><defs
     id="defs1" /><g
     inkscape:label="Layer 1"
     inkscape:groupmode="layer"
     id="layer1"><path
       id="path1"
       style="fill:#000000"
       d="m 63.101058,97.247811 c -0.201281,0.03418 -0.275435,0.07197 -0.275435,0.114722 0,0.02306 0.0212,0.0452 0.07235,0.06563 0.05526,-0.06546 0.122856,-0.126281 0.203088,-0.180351 z m 26.415442,9.771499 0.174666,1.91823 c 0.29041,3.18325 1.122611,6.57187 2.104781,8.57105 1.11679,2.27322 3.604732,4.75911 4.965072,4.96094 0.47147,0.0699 1.86934,0.30005 3.10627,0.51159 2.485551,0.42507 2.910421,0.47842 2.910421,0.36587 0,-0.60009 -2.48002,-4.35052 -4.425574,-6.69313 -2.46819,-2.97191 -2.410228,-2.88971 -1.792138,-2.5585 1.85784,0.99555 6.312772,5.54541 8.096662,8.26875 l 0.42426,0.6475 0.18862,-1.25573 c 0.25882,-1.72589 -0.29244,-5.06602 -1.09864,-6.65696 -0.87022,-1.71731 -3.52298,-4.32255 -5.361944,-5.26635 -2.57591,-1.322 -7.140688,-2.81326 -8.611878,-2.81326 z m 37.42252,1.7725 -1.43144,0.17932 c -5.71163,0.71464 -10.06802,2.14862 -12.82609,4.22196 -3.91,2.93928 -5.33533,6.24978 -5.17332,12.01632 0.0174,0.61847 0.12133,1.12341 0.23047,1.12241 0.10915,-9.9e-4 0.4961,-0.44747 0.8599,-0.99218 1.22391,-1.83252 5.66893,-6.19784 8.04447,-7.9003 1.29594,-0.92875 2.47112,-1.68878 2.61121,-1.68878 0.004,0 0.008,0.001 0.01,0.003 v 5.2e-4 5.1e-4 5.2e-4 c 0.0702,0.0668 -0.8638,1.1565 -2.12804,2.47892 -3.58543,3.75042 -7.21454,8.69708 -7.21454,9.83351 0,0.2627 2.51772,0.0966 4.44262,-0.29301 3.12137,-0.63178 5.10891,-1.67604 7.23263,-3.79977 1.36931,-1.3693 2.07133,-2.34558 2.76469,-3.84627 1.10605,-2.3939 2.16961,-6.51053 2.40657,-9.31365 z M 97.222489,124.5061 c -0.908367,-4.6e-4 -1.838636,0.13052 -3.121256,0.39325 -4.49452,0.92064 -8.567812,3.9708 -10.574032,7.91838 -2.33993,4.60421 -2.256393,9.91157 0.230477,14.68283 0.88907,1.70576 4.33166,5.00507 6.18877,5.9309 0.85099,0.42424 2.330041,0.99029 3.286621,1.25832 3.40792,0.95489 8.224811,0.30416 11.563121,-1.56166 4.02485,-2.24954 7.01276,-6.90325 7.50703,-11.69334 0.81364,-7.88512 -4.24124,-14.79693 -12.09125,-16.53233 -1.194393,-0.26392 -2.081113,-0.3959 -2.989481,-0.39635 z m 22.926771,5.25756 c -2.1143,0.001 -4.24523,0.58855 -6.12676,1.85105 -1.19371,0.80097 -1.18812,0.74682 -0.36432,3.45043 0.7778,2.55267 0.84211,7.03068 0.13332,9.26042 -0.60101,1.89069 -1.50294,3.98921 -1.94613,4.52685 -0.30359,0.36829 -0.20283,0.55981 0.74879,1.41955 1.16358,1.05123 3.45622,2.22408 5.00021,2.5585 0.50933,0.1103 1.96925,0.15445 3.24425,0.0982 1.98534,-0.0877 2.59315,-0.23514 4.23333,-1.02629 5.57272,-2.68805 8.01642,-8.68032 5.94951,-14.58826 -1.65089,-4.71884 -6.22076,-7.55292 -10.8722,-7.55044 z" /></g></svg>
